<?xml version="1.0" encoding="utf-8"?>
<!-- Generator: Adobe Illustrator 25.0.1, SVG Export Plug-In . SVG Version: 6.00 Build 0)  -->
<svg version="1.1" id="圖層_1" xmlns="http://www.w3.org/2000/svg" xmlns:xlink="http://www.w3.org/1999/xlink" x="0px" y="0px"
	 viewBox="0 0 228.7 39.1" style="enable-background:new 0 0 228.7 39.1;" xml:space="preserve">
<style type="text/css">
	.st0{fill:#FFFFFF;}
</style>
<g>
	<g>
		<path class="st0" d="M7.3,1.6h6.6l-2.6,14.8h0.2L23.3,1.6h7.2L19.1,16.5l7,21.1h-6.9l-5.1-16.4l-4.8,5.9L7.5,37.6H0.9L7.3,1.6z"/>
		<path class="st0" d="M31.6,23.1c0-12.4,7.4-22.2,16.8-22.2c3.7,0,6.6,2.1,8.3,5.7l-4.5,4C51,8.5,49.7,7.4,48,7.4
			c-5.4,0-9.6,7.2-9.6,15.2c0,5.6,1.9,9,6.6,9c1.9,0,3.8-1.1,5.4-2.7l2.8,4.8c-1.9,2-5.2,4.4-9.5,4.4C36.2,38.2,31.6,32.6,31.6,23.1
			z"/>
		<path class="st0" d="M73.4,1.6h9.8c6.2,0,10.8,2.5,10.8,9.1c0,9.4-6.7,13.6-14.1,13.6h-4l-2.3,13.2H67L73.4,1.6z M80.5,18.4
			c4.7,0,7-2.6,7-6.4c0-3-1.8-4.3-5.3-4.3h-3.4L77,18.4H80.5z M79.4,22.6l4.8-4.8L91,37.6h-7L79.4,22.6z"/>
		<path class="st0" d="M109.2,9.5c5.7,0,7.8,4.6,7.8,10.3c0,2.6-0.9,5.4-1.2,6.2h-13.6c-0.2,4.6,2.3,6.4,5.4,6.4c1.5,0,3.2-1,4.4-2
			l2.4,4.8c-1.9,1.5-4.9,2.8-8.5,2.8c-5.8,0-9.8-4.3-9.8-11.7C95.9,16.3,102.9,9.5,109.2,9.5z M111.4,21.4c0.1-0.6,0.2-1.2,0.2-2
			c0-2.2-0.9-4.1-3.2-4.1c-2.3,0-4.7,2.1-5.7,6.1H111.4z"/>
		<path class="st0" d="M118.1,32.9l3.9-3.6c1.6,2.3,3.5,3.3,5.2,3.3c1.8,0,3.4-1.1,3.4-2.6c0-1.6-1.4-2.3-4.1-4.1
			c-2.7-1.7-4.9-4.2-4.9-7.7c0-5.2,4.1-8.9,9.3-8.9c3.4,0,6,1.9,7.9,4.2l-3.6,4c-1.2-1.4-2.6-2.5-4.3-2.5c-1.8,0-3,1.2-3,2.6
			c0,1.7,2.1,2.6,3.9,3.8c2.8,1.7,5,4,5,7.7c0,5.4-4.2,9-10,9C123.7,38.2,120.1,36.3,118.1,32.9z"/>
		<path class="st0" d="M159.8,37.6h-5.4l0.1-3.7h-0.2c-2.2,2.3-5,4.3-7.8,4.3c-4,0-5.6-2.5-5.6-7c0-1.2,0.1-2.5,0.4-4l3-17h6.6
			l-2.8,16.2c-0.2,1.1-0.4,1.9-0.4,2.6c0,1.9,0.9,2.8,2.5,2.8c1.4,0,2.9-1.1,4.8-3.6l3-18h6.6L159.8,37.6z"/>
		<path class="st0" d="M170.7,10.2h5.4l-0.1,3.7h0.2c2.3-2.3,5-4.3,7.7-4.3c3.6,0,4.9,2,5.5,4.8c2.6-2.8,5.4-4.8,8.1-4.8
			c3.9,0,5.6,2.5,5.6,7c0,1.2-0.1,2.5-0.4,4l-3,17h-6.5l2.8-16.2c0.2-1.1,0.4-1.9,0.4-2.6c0-1.9-0.9-2.8-2.4-2.8
			c-1.1,0-2.7,1.1-4.7,3.6l-3.1,18h-6.6l2.8-16.2c0.2-1.1,0.4-1.9,0.4-2.6c0-1.9-0.9-2.8-2.4-2.8c-1.2,0-2.7,1.1-4.8,3.6l-3,18H166
			L170.7,10.2z"/>
		<path class="st0" d="M219.9,9.5c5.7,0,7.8,4.6,7.8,10.3c0,2.6-0.9,5.4-1.2,6.2h-13.6c-0.2,4.6,2.3,6.4,5.4,6.4c1.5,0,3.2-1,4.4-2
			l2.4,4.8c-1.9,1.5-4.9,2.8-8.5,2.8c-5.8,0-9.8-4.3-9.8-11.7C206.6,16.3,213.6,9.5,219.9,9.5z M222.1,21.4c0.1-0.6,0.2-1.2,0.2-2
			c0-2.2-0.9-4.1-3.2-4.1s-4.7,2.1-5.7,6.1H222.1z"/>
	</g>
</g>
</svg>
